<svg xmlns="http://www.w3.org/2000/svg" width="1920" height="1080" viewBox="0 0 1920 1080"><rect width="1920" height="1080" fill="#19334e"/><rect x="155" y="275" width="16" height="170" fill="#b8a687"/><rect x="549" y="275" width="16" height="170" fill="#b8a687"/><rect x="135" y="185" width="450" height="110" fill="#efe5cf"/><rect x="755" y="275" width="16" height="170" fill="#b8a687"/><rect x="1149" y="275" width="16" height="170" fill="#b8a687"/><rect x="735" y="185" width="450" height="110" fill="#efe5cf"/><rect x="1355" y="275" width="16" height="170" fill="#b8a687"/><rect x="1749" y="275" width="16" height="170" fill="#b8a687"/><rect x="1335" y="185" width="450" height="110" fill="#efe5cf"/><path d="M160,755h490v25h-490z" fill="#a99b85"/><rect x="160" y="555" width="490" height="200" fill="#24445d"/><path d="M755,740h430v20h-430z" fill="#a99b85"/><rect x="755" y="500" width="430" height="240" fill="#c6c3b6"/><path d="M1360,630h350v20h-350z" fill="#a99b85"/><rect x="1360" y="490" width="350" height="140" fill="#a89675"/><path d="M1390 630v85h22v-85 M1650 630v85h22v-85" fill="#a89675"/><circle cx="1540" cy="376" r="29" fill="#e5dac2"/><path d="M1518 410h44l30 80h-104z" fill="#e5dac2"/><path d="M210 600l140-25 140 28-140 55z" fill="#f4ecd8"/><path d="M210 610l140 56 140-55v15l-140 58-140-58z" fill="#cebea0"/><path d="M925 510l80-42v194l-80 40z" fill="#efe6d2"/><path d="M925 510l-22 20v168l22 4z" fill="#c9bda7"/></svg>
