<svg xmlns="http://www.w3.org/2000/svg" width="1920" height="1080" viewBox="0 0 1920 1080"><rect width="1920" height="1080" fill="#19334e"/><rect x="155" y="275" width="16" height="170" fill="#b8a687"/><rect x="549" y="275" width="16" height="170" fill="#b8a687"/><rect x="135" y="185" width="450" height="110" fill="#efe5cf"/><rect x="755" y="275" width="16" height="170" fill="#b8a687"/><rect x="1149" y="275" width="16" height="170" fill="#b8a687"/><rect x="735" y="185" width="450" height="110" fill="#efe5cf"/><rect x="1355" y="275" width="16" height="170" fill="#b8a687"/><rect x="1749" y="275" width="16" height="170" fill="#b8a687"/><rect x="1335" y="185" width="450" height="110" fill="#efe5cf"/><path d="M165,690h420v20h-420z" fill="#a99b85"/><rect x="165" y="430" width="420" height="260" fill="#22445e"/><path d="M790,730h930v18h-930z" fill="#a99b85"/><rect x="790" y="560" width="930" height="170" fill="#e6dcc6"/><path d="M1420 560h300v170h-300z" fill="#2c4960"/><path d="M1440 580h250v130h-250z" fill="#314f65"/><rect x="260" y="448" width="155" height="63" fill="#efe5cf"/><rect x="230" y="529" width="245" height="94" fill="#b4a88d"/><rect x="247" y="529" width="210" height="22" fill="#162a3d"/><path d="M850 580h110v120H850z" fill="#f1e9d7"/><path d="M850 580h8v120h-8z" fill="#cabea7"/></svg>
